<?xml version="1.0" encoding="UTF-8"?>
<svg width="30px" height="30px" viewBox="0 0 30 30" version="1.1" xmlns="http://www.w3.org/2000/svg" xmlns:xlink="http://www.w3.org/1999/xlink">
    <!-- Generator: Sketch 64 (93537) - https://sketch.com -->
    <title>消息</title>
    <desc>Created with Sketch.</desc>
    <g id="页面1" stroke="none" stroke-width="1" fill="none" fill-rule="evenodd">
        <g id="首页" transform="translate(-16.000000, -51.000000)" fill-rule="nonzero">
            <g id="消息" transform="translate(16.000000, 51.000000)">
                <circle id="椭圆形" fill="#222222" opacity="0.15" cx="15" cy="15" r="15"></circle>
                <g id="xiaoxi" transform="translate(4.000000, 3.000000)" fill="#595959">
                    <path d="M3.13624725,19.2 L3.13624725,10.6666667 C3.13645156,6.36543014 6.27385326,2.73651645 10.4566219,2.19946667 C10.4552646,2.17744911 10.4545673,2.15539438 10.4545309,2.13333335 L10.4545309,1.06666667 C10.4545309,0.477562937 10.9226034,0 11.5,0 C12.0773966,0 12.5454691,0.477562937 12.5454691,1.06666667 L12.5454691,2.13333335 C12.5454691,2.15466667 12.5454691,2.17706667 12.5433781,2.19946667 C16.7261467,2.73651645 19.8635484,6.36543014 19.8637527,10.6666667 L19.8637527,19.2 L21.954691,19.2 C22.5320251,19.2000902 23,19.6776267 23,20.2666667 C23,20.8557066 22.5320251,21.3333333 21.954691,21.3333333 L1.04530905,21.3333333 C0.467974917,21.3333333 0,20.8557066 0,20.2666667 C0,19.6776267 0.467974917,19.2000902 1.04530905,19.2 L3.13624725,19.2 L3.13624725,19.2 Z M5.22718543,19.2 L17.7728146,19.2 L17.7728146,10.6666667 C17.7728146,7.13204427 14.9643798,4.26666667 11.5,4.26666667 C8.03562018,4.26666667 5.22718543,7.13204427 5.22718543,10.6666667 L5.22718543,19.2 Z M9.93179636,22.4 L13.0682036,22.4 C13.0682036,23.2836556 12.366095,24 11.5,24 C10.633905,24 9.93179636,23.2836556 9.93179636,22.4 Z" id="形状"></path>
                </g>
            </g>
        </g>
    </g>
</svg>